# xmcd
#
# Track frame offsets: 
#        150
#        18639
#        40300
#        58189
#        78011
#        96700
#        109890
#        123174
#        137532
#        147276
#        162049
#        191669
#        210049
#        227604
#        247827
#        265399
#
# Disc length: 3903 seconds
#
# Revision: 1
# Processed by: cddbd v1.5.1PL2 Copyright (c) Steve Scherf et al.
# Submitted via: ExactAudioCopy v0.95b4
#
DISCID=d50f3d10
DTITLE=Gheorghe Zamfir - Romantics
DYEAR=1900
DGENRE=Instrumental
TTITLE0=el condor pasa
TTITLE1=lonely shepherd
TTITLE2=alladin
TTITLE3=don't cry for me argentina
TTITLE4=love story
TTITLE5=la mer
TTITLE6=maria
TTITLE7=spanish eyes
TTITLE8=release me
TTITLE9=les jeux interdits
TTITLE10=going home
TTITLE11=once upon a time in america
TTITLE12=limelight
TTITLE13=tango jalousie
TTITLE14=la paloma
TTITLE15=everything i do
EXTD=
EXTT0=
EXTT1=
EXTT2=
EXTT3=
EXTT4=
EXTT5=
EXTT6=
EXTT7=
EXTT8=
EXTT9=
EXTT10=
EXTT11=
EXTT12=
EXTT13=
EXTT14=
EXTT15=
PLAYORDER=
